<svg xmlns="http://www.w3.org/2000/svg" viewBox="0 0 280 45" width="280" height="45">
  <!-- UM6P Logo -->
  <g>
    <!-- U -->
    <rect x="0" y="2" width="26" height="34" rx="2" fill="#D35230"/>
    <text x="13" y="26" font-family="Arial, Helvetica, sans-serif" font-size="20" font-weight="bold" fill="white" text-anchor="middle">U</text>
    
    <!-- M -->
    <rect x="29" y="2" width="26" height="34" rx="2" fill="#D35230"/>
    <text x="42" y="26" font-family="Arial, Helvetica, sans-serif" font-size="20" font-weight="bold" fill="white" text-anchor="middle">M</text>
    
    <!-- 6 -->
    <rect x="58" y="2" width="26" height="34" rx="2" fill="#D35230"/>
    <text x="71" y="26" font-family="Arial, Helvetica, sans-serif" font-size="20" font-weight="bold" fill="white" text-anchor="middle">6</text>
    
    <!-- P -->
    <rect x="87" y="2" width="26" height="34" rx="2" fill="#D35230"/>
    <text x="100" y="26" font-family="Arial, Helvetica, sans-serif" font-size="20" font-weight="bold" fill="white" text-anchor="middle">P</text>
  </g>
  
  <!-- SOLE Logo -->
  <g>
    <!-- S -->
    <rect x="122" y="2" width="26" height="34" rx="2" fill="#4A6EC9"/>
    <text x="135" y="26" font-family="Arial, Helvetica, sans-serif" font-size="20" font-weight="bold" fill="white" text-anchor="middle">S</text>
    
    <!-- O -->
    <rect x="151" y="2" width="26" height="34" rx="2" fill="#4A6EC9"/>
    <text x="164" y="26" font-family="Arial, Helvetica, sans-serif" font-size="20" font-weight="bold" fill="white" text-anchor="middle">O</text>
    
    <!-- L -->
    <rect x="180" y="2" width="26" height="34" rx="2" fill="#4A6EC9"/>
    <text x="193" y="26" font-family="Arial, Helvetica, sans-serif" font-size="20" font-weight="bold" fill="white" text-anchor="middle">L</text>
    
    <!-- E -->
    <rect x="209" y="2" width="26" height="34" rx="2" fill="#4A6EC9"/>
    <text x="222" y="26" font-family="Arial, Helvetica, sans-serif" font-size="20" font-weight="bold" fill="white" text-anchor="middle">E</text>
  </g>
  
  <!-- Subtitle text -->
  <text x="180" y="44" font-family="Arial, Helvetica, sans-serif" font-size="6" fill="#666666" text-anchor="middle">Student Organizations, Leadership &amp; Engagement</text>
</svg>
